<svg width="335" height="250" fill="none" xmlns="http://www.w3.org/2000/svg"><path d="M310.361 213.212c15.944 5.189 22.279 11.891 22.133 19.349-.218 8.864-16.673 16.863-38.733 16.647-10.048-.108-48.854-.433-60.649-.541-62.614-.648-165.054 2.27-196.288.541-30.87-1.622-38.88-11.134-36.404-22.592 2.767-12.971 23.444-16.214 56.353-18.052 47.761-2.486 175.902-3.459 200.584-2.378 18.056.865 38.005 2.162 53.004 7.026z" fill="#fff" fill-opacity=".3"/><path d="M79.78 39.315h-5.024v176.703h5.024V39.315z" fill="#333"/><path d="M79.78 39.825l-2.33 11.358-2.694 12.96-31.234 151.803h-5.097L74.83 38.806l2.475.51 2.476.509z" fill="#333"/><path d="M120.479 215.946h-5.169L79.853 61.522 77.45 51.183l-2.62-11.358 2.475-.51 2.475-.582 40.699 177.213z" fill="#333"/><path d="M93.759 0H60.777l-9.1 51.184h51.256L93.759 0z" fill="#8EC8FE"/><path d="M97.035 48.275c-.145 0-.364-.146-.364-.292L89.463 2.697c0-.218.073-.364.292-.437.218 0 .364.073.437.291l7.207 45.287c.073.218-.072.437-.364.437.073 0 .073 0 0 0zm-6.844-.001c-.218 0-.364-.146-.364-.291L85.095 2.697c0-.219.145-.364.291-.364.218 0 .364.145.364.29l4.733 45.287c.145.146 0 .364-.292.364.073 0 .073 0 0 0zm-6.407.001c-.218 0-.364-.146-.364-.365L81.09 2.624c0-.218.146-.364.364-.364.219 0 .364.146.364.364l2.33 45.286c0 .219-.145.365-.364.365zm-6.553 0c-.218 0-.364-.146-.364-.365l.073-45.286c0-.218.146-.364.364-.364s.364.146.364.364l-.073 45.286c0 .219-.145.365-.364.365zm-6.479 0c-.219 0-.364-.219-.364-.365L72.79 2.624c0-.218.219-.364.364-.364.219 0 .364.219.364.364L71.116 47.91c0 .219-.146.365-.364.365zm-6.553 0c-.218 0-.364-.219-.364-.437L68.64 2.552c0-.219.219-.364.364-.291.219 0 .364.218.291.364L64.49 47.91c.073.218-.073.364-.291.364zm-6.625 0c-.073 0-.073 0 0 0-.292 0-.364-.219-.364-.437l7.207-45.286c0-.219.219-.364.437-.291.219 0 .364.218.291.436l-7.207 45.287c-.073.145-.219.29-.364.29z" fill="#5361A3"/><path d="M234.35 68.657l-47.107.946-.582-1.019c-4.004-3.568-2.985-10.484.728-14.489 0-.072.073-.072.146-.145 7.717-8.228 21.842-13.76 30.36-13.542 16.528.364 16.455 12.304 16.455 21.842v6.407z" fill="#FCD8AE"/><mask id="a" style="mask-type:alpha" maskUnits="userSpaceOnUse" x="184" y="40" width="51" height="30"><path d="M234.35 68.657l-47.107.947-.582-1.02c-4.004-3.567-2.985-10.484.728-14.488 0-.073.073-.073.146-.146 7.717-8.227 21.842-13.76 30.36-13.542 16.528.364 16.455 12.304 16.455 21.842v6.407z" fill="#FCD8AE"/></mask><g mask="url(#a)" fill="#D48648"><path d="M196.563 38.806c.364-.145.728-.145 1.092-.218.364-.073.728-.073 1.092-.073.728 0 1.456.073 2.184.219 1.457.29 2.84.873 4.15 1.747 1.238.874 2.33 2.038 3.058 3.422.728 1.383 1.092 2.912.947 4.368 0 .437-.437.801-.874.801a.764.764 0 01-.655-.364v-.073c-.728-1.092-1.383-2.038-2.184-2.912a13.576 13.576 0 00-2.476-2.111c-.946-.583-1.893-1.165-2.985-1.675-.51-.291-1.092-.51-1.674-.728l-.874-.364-.437-.218-.437-.219-.145-.073c-.365-.218-.51-.728-.292-1.165.146-.218.364-.364.51-.364zm9.247-1.236c.364-.146.728-.146 1.092-.219.364-.073.728-.073 1.092-.073.728 0 1.456.073 2.184.219 1.456.291 2.839.873 4.15 1.747 1.238.874 2.33 2.039 3.058 3.422.728 1.383 1.092 2.912.946 4.369 0 .436-.436.8-.873.8a.765.765 0 01-.656-.364V47.4c-.728-1.093-1.383-2.04-2.184-2.913a13.607 13.607 0 00-2.475-2.111c-.947-.583-1.893-1.165-2.985-1.675-.51-.291-1.092-.51-1.675-.728l-.874-.364-.436-.218-.437-.219-.146-.072c-.364-.219-.51-.729-.291-1.165.146-.219.291-.292.51-.364zm9.173-2.04h1.165c.364 0 .728.073 1.092.146.728.145 1.383.437 2.112.728a10.775 10.775 0 013.64 2.694c1.019 1.165 1.82 2.548 2.184 4.077.364 1.529.364 3.058-.073 4.514a.786.786 0 01-1.019.51.882.882 0 01-.51-.51v-.073c-.437-1.237-.873-2.33-1.456-3.276-.509-.947-1.165-1.82-1.893-2.694a19.804 19.804 0 00-2.548-2.33c-.437-.364-.947-.728-1.456-1.165l-.728-.582-.364-.291a1.562 1.562 0 01-.364-.292l-.146-.145c-.291-.291-.364-.874 0-1.165 0 0 .146-.146.364-.146z"/></g><path d="M195.689 57.808c-.801 1.456-2.33 2.548-3.349 2.548-1.019 0-2.548-1.092-3.349-2.548-.801-1.456.655-2.913 3.349-2.913s4.223 1.457 3.349 2.913z" fill="#FB7349"/><path d="M192.122 55.624c.683 0 1.237-.326 1.237-.728 0-.402-.554-.728-1.237-.728-.684 0-1.238.326-1.238.728 0 .402.554.728 1.238.728z" fill="#333"/><path d="M193.796 57.08h-.073c-.801-.218-1.31-.654-1.529-1.091-.218.364-.728.8-1.529 1.019-.145.073-.364-.073-.364-.219-.073-.145.073-.364.219-.364 1.383-.363 1.383-1.237 1.383-1.31 0-.146.145-.291.291-.291s.291.145.291.291.073 1.02 1.384 1.383a.401.401 0 01.218.364c-.073.073-.218.219-.291.219zm-5.461-4.44c0 .801-.509 1.384-1.165 1.384-.655 0-1.165-.656-1.165-1.384 0-.8.51-1.383 1.165-1.383.656-.073 1.165.583 1.165 1.383zm9.829 0c0 .801-.509 1.384-1.165 1.384-.655 0-1.165-.656-1.165-1.384 0-.8.51-1.383 1.165-1.383.656-.073 1.165.583 1.165 1.383z" fill="#333"/><path d="M204.135 55.334c0 4.66-4.296 8.81-10.048 9.683-6.188.874-11.867-2.33-12.741-7.354-.947-5.46 4.004-10.047 10.193-10.92.874-.146 1.82-.146 2.694-.146.874.072 1.674.145 2.475.364 1.165.29 2.257.728 3.204 1.31 2.257 1.384 3.786 3.495 4.15 5.97 0 .364.073.728.073 1.093z" fill="#FCD8AE"/><path d="M200.203 49.144l-4.587.364-2.038.146s.218-1.456.582-2.985c.437-1.893 1.165-3.932 2.111-3.713.656.145 1.457 1.237 2.185 2.475.582 1.02 1.092 2.184 1.456 2.912.145.437.291.801.291.801z" fill="#FCD8AE"/><path d="M204.135 55.333c-.656.146-1.311.292-1.966.292-3.568 0-6.48-2.549-6.48-5.606v-.51c.073-.874.437-1.748 1.019-2.476.437-.655 1.092-1.165 1.82-1.601.583 1.019 1.093 2.184 1.457 2.912 2.257 1.383 3.786 3.495 4.15 5.97-.073.291 0 .655 0 1.02z" fill="#D48648"/><path d="M188.991 50.673s-3.422-5.242-5.097-5.315c-1.674-.072-1.31 7.136-1.31 7.136l6.407-1.82z" fill="#FCD8AE"/><path d="M203.844 53.659c-.146 0-.364-.146-.364-.291-.656-3.86-3.859-5.097-3.859-5.097-.219-.073-.292-.291-.219-.437.073-.218.292-.291.437-.218.146.072 3.641 1.456 4.369 5.679 0 .145-.146.29-.364.364z" fill="#AD5F1F"/><path d="M200.057 49.144c-.145 0-.218-.073-.291-.219v-.073c-.947-2.402-2.403-5.315-3.64-5.679-.219-.073-.292-.29-.219-.437.073-.218.291-.29.437-.218 1.747.51 3.422 4.441 4.077 6.116.073.218 0 .437-.218.51h-.146zm-12.086.511a.549.549 0 01-.291-.145s0-.073-.073-.073c-1.383-2.257-2.839-3.64-3.859-3.713-.218 0-.364-.219-.364-.364 0-.219.219-.364.364-.364 1.748.145 3.495 2.62 4.442 4.077.145.145.072.437-.073.51.073.072-.073.072-.146.072z" fill="#AD5F1F"/><path d="M223.501 52.64c-1.238 1.31-2.257 3.058-2.839 5.388a20.708 20.708 0 00-.364 2.402s-4.223.947-6.48 3.058c-.364-.873-.583-1.747-.583-2.766 0-4.514 4.442-8.082 9.902-8.082.219-.073.291-.073.364 0z" fill="#D48648"/><path d="M220.298 64.433c-.146 0-.364-.146-.364-.291-.292-2.039-.073-4.66.437-6.189.8-2.33 1.601-4.223 2.912-5.533 3.276-3.422 8.009-3.786 9.392-3.786.218 0 .364.145.364.364 0 .218-.146.364-.291.364h-.073c-1.311 0-5.752.364-8.883 3.567-1.164 1.238-1.965 2.985-2.693 5.315-.51 1.456-.656 3.932-.364 5.898a1.124 1.124 0 01-.437.291z" fill="#AD5F1F"/><path d="M213.381 69.384c-.146 0-.291-.145-.364-.29 0-.074-.364-1.748 1.529-3.496 1.238-1.237 2.985-1.529 4.368-1.747 1.311-.218 2.039-.291 2.184-.874.073-.218.219-.291.437-.291.219.073.292.218.292.437-.219 1.092-1.457 1.238-2.767 1.456-1.383.218-2.912.437-4.005 1.529-1.601 1.456-1.383 2.767-1.31 2.767.073.218-.073.364-.291.436 0 .073 0 .073-.073.073z" fill="#AD5F1F"/><path d="M188.044 54.751c0 .655-.582 1.165-1.31 1.165-.728 0-1.311-.51-1.311-1.165s.583-1.165 1.311-1.165c.728-.073 1.31.51 1.31 1.165zm9.32-.51c0 .656-.583 1.165-1.311 1.165s-1.31-.51-1.31-1.165.582-1.164 1.31-1.164a1.19 1.19 0 011.311 1.164z" fill="#333"/><path d="M87.716 172.116c.8.291-11.358 10.193-19.149 25.337-.51 1.019-1.601 1.601-2.694 1.456a524.53 524.53 0 00-21.55-2.112c-5.316-.436-17.911-1.601-17.911-1.601s-4.077-3.131 7.28-4.514c18.494-2.257 23.153-7.427 23.153-7.427 7.645-9.392 14.562-21.842 14.562-21.842s15.726 10.484 16.309 10.703z" fill="#FF9A75"/><path d="M110.359 166.292c-4.442 12.668-5.024 16.527-6.553 27.521-.146.873-.728 1.529-1.529 1.82-2.621.801-8.591 2.912-16.891 6.553-2.912 1.31-10.412 3.858-15.071 5.46-1.53.51-2.84-1.31-1.82-2.621 1.019-1.31 2.475-2.912 4.732-4.66 14.561-11.43 14.561-14.779 14.561-14.779 1.457-6.043 4.879-21.333 5.825-24.755-.073 0 16.891 4.878 16.746 5.461z" fill="#EF7959"/><path d="M157.028 102.512l-11.139-9.538c-3.859-2.767-9.028-2.257-12.086 1.165l-56.062 62.833-.437.436c-.073.073-.073.146-.145.219l-.219.218.073.073c-.874 2.912 4.514 9.683 12.741 15.654 7.864 5.751 15.581 8.809 18.421 7.572l.072.072.073-.145c.219-.146.437-.291.583-.51.218-.291.291-.655.364-1.019l47.761-77.03z" fill="#333"/><path d="M127.978 93.848c-3.64-2.767-8.81-2.184-11.868 1.238 0 0-57.153 63.997-57.226 64.143-1.893 2.548 3.713 9.829 12.45 16.163 8.737 6.407 17.328 9.538 19.221 6.99.146-.146 10.411-8.3 11.649-19.44l1.456-5.46c1.82-4.733 5.17-4.878 8.446-8.664l8.664-9.829c2.767-3.932 6.407-8.81 6.407-15.8 0-7.353 8.009-9.319 10.703-16.163l1.747-4.368-11.649-8.81z" fill="url(#paint0_linear_1104_37007)"/><path d="M116.839 226.357h-4.587l-2.403-17.692 10.12-.145-3.13 17.837zm78.122 0h4.587l2.402-17.692-10.12-.145 3.131 17.837zm-31.672 0h-4.587l-2.402-17.692 10.12-.145-3.131 17.837zm81.035 0h4.223l3.058-17.692-10.412-.145 3.131 17.837z" fill="#333"/><path d="M258.521 69.093l-6.552 42.083c-2.476 14.197-14.78 24.463-29.196 24.463h-11.067c-5.752 0-10.63 4.441-11.066 10.193l-1.893 24.172-78.414-.073-8.737-34.583 26.138.072c14.416.073 26.793-10.265 29.269-24.463l4.441-24.609c1.82-10.12 10.63-17.546 20.895-17.546l64.144.073c.801.072 1.456.145 2.038.218z" fill="#FD653C"/><path d="M131.327 134.475s9.028 10.12 13.906 40.918l28.031 3.931 7.426-13.178-43.247-33.346-6.116 1.675z" fill="#333"/><path d="M220.152 53.075c-.437 0-4.369.801-4.806 3.276-.436 2.549 2.549 5.898 9.393 6.408 6.843.51.509-9.32.509-9.32l-5.096-.364z" fill="#702831"/><path d="M218.696 154.86s-8.519 1.092-23.881 12.595c-7.79 5.825-16.09 2.257-22.862-5.606l-38.369-44.631 19.148-18.566 65.964 56.208z" fill="#333"/><path d="M206.609 152.602l-7.79 8.883c-10.047 11.503-27.739 12.013-38.369 1.092l-41.209-41.937 17.546-20.095 69.822 52.057z" fill="url(#paint1_linear_1104_37007)"/><path d="M184.331 114.161l-.292.874-13.979-12.814-8.591-29.924-40.481.218c-.946 0-2.038.947-1.747 2.767l6.334 28.468c.146.582.437 1.165.801 1.601l13.324 14.562c.946.801 2.184.946 2.839.874l40.335-4.15c.656-.073 1.311-.51 1.384-1.093v-1.383h.073z" fill="#333"/><path d="M170.206 100.91l-43.102 2.694-6.989-29.341c-.219-1.02.364-1.82 1.31-1.82l40.044-.146c1.02 0 2.112.874 2.403 1.893l6.334 26.72z" fill="#5361A3"/><path d="M167.221 99.82l-2.403.145-23.517 1.383-11.357.655c-.729.073-1.529-.437-1.893-1.165 0 0 0-.072-.073-.072 0-.073-.073-.146-.073-.292v-.072l-1.602-6.772-.874-3.567v-.073l-3.494-14.78c-.219-.873.291-1.529 1.165-1.529l12.959-.072 24.828-.073c.873 0 1.674.655 1.893 1.529l5.46 23.08v.072c.291.874-.218 1.53-1.019 1.602z" fill="#E0F0FF"/><path d="M183.53 115.182l-40.554 3.859c-1.165.145-2.403-.292-3.131-1.093l-12.741-14.27 43.102-2.694 13.906 12.96c.51.364.146 1.165-.582 1.238z" fill="#5361A3"/><path d="M137.661 112.923l-8.373-8.882 40.263-2.403 8.372 7.572-40.262 3.713z" fill="url(#paint2_linear_1104_37007)"/><path d="M144.869 116.855c-.073 0-.219-.073-.292-.145l-13.979-15.072a.352.352 0 010-.509.352.352 0 01.51 0l13.979 15.071a.352.352 0 010 .51c-.073.145-.145.145-.218.145zm3.931-.872c-.072 0-.218-.073-.291-.146l-13.979-14.998a.352.352 0 010-.51.352.352 0 01.51 0l13.979 15.071a.353.353 0 010 .51c0 .073-.073.073-.219.073zm4.005-.657a.547.547 0 01-.291-.146l-13.979-15.071a.351.351 0 010-.51.351.351 0 01.509 0l13.979 15.072a.35.35 0 010 .509c-.073.073-.145.146-.218.146zm4.004-.073c-.073 0-.218-.073-.291-.146l-13.979-15.071a.35.35 0 010-.51.352.352 0 01.51 0l13.979 15.072a.352.352 0 010 .509c-.073.146-.146.146-.219.146zm3.932-.874a.547.547 0 01-.291-.146l-13.979-15.071a.351.351 0 010-.51.351.351 0 01.509 0l13.979 15.071a.352.352 0 010 .51c0 .146-.145.146-.218.146zm4.004-.727c-.073 0-.218-.073-.291-.146l-13.979-15.07a.351.351 0 010-.51.352.352 0 01.51 0l13.979 15.071a.352.352 0 010 .509c-.073.146-.146.146-.219.146zm3.932-.147a.547.547 0 01-.291-.146l-13.979-15.071a.351.351 0 010-.51.351.351 0 01.509 0l13.979 15.071a.352.352 0 010 .51c0 .146-.145.146-.218.146zm4.004-.874a.549.549 0 01-.291-.145l-13.979-15.071a.351.351 0 010-.51.352.352 0 01.51 0l13.979 15.071a.353.353 0 010 .51c-.073.145-.146.145-.219.145zm3.932-.727a.547.547 0 01-.291-.146l-13.979-15.07a.351.351 0 010-.51.351.351 0 01.509 0l13.979 15.071a.35.35 0 010 .509c0 .146-.073.146-.218.146z" fill="#333"/><path d="M126.157 107.826c-.218 0-.364-.145-.364-.364 0-.218.146-.364.364-.364l54.897-4.077c.219 0 .364.146.364.364s-.145.364-.364.364l-54.897 4.077zm.656 3.351c-.219 0-.364-.145-.364-.364 0-.218.145-.364.364-.364l54.896-4.441c.219 0 .365.145.365.364 0 .218-.146.364-.365.364l-54.896 4.441z" fill="#333"/><path d="M167.221 99.819l-2.403.145-23.517 1.383-11.358.656c-.728.073-1.529-.437-1.893-1.165 0 0 0-.073-.072-.073-.073-.073-.073-.218-.146-.291l13.178-.728 27.157-1.456v.072c.364.728-.145 1.384-.946 1.457z" fill="#3D4778"/><path d="M156.081 96.253l-23.735 1.238c-.582 0-1.092-.364-1.238-.947l-4.368-18.42-.364-1.529c-.073-.437.218-.874.655-.874l23.735-.145c.583 0 1.02.364 1.165.946l.291 1.31 4.369 17.62c.218.364-.073.728-.51.801z" fill="url(#paint3_linear_1104_37007)"/><path d="M132.273 97.709c-.728 0-1.31-.51-1.456-1.165l-4.659-19.95a.822.822 0 01.218-.8c.146-.219.437-.364.728-.364l23.735-.146c.656 0 1.311.437 1.456 1.165l4.733 18.93c.073.291 0 .582-.146.8-.145.22-.436.365-.728.365l-23.735 1.238c-.073-.073-.146-.073-.146-.073zm18.566-21.915l-23.735.145c-.145 0-.218.073-.291.146-.073.073-.146.219-.073.364l.364 1.53 4.369 18.42c.072.509.509.8.946.8l23.735-1.237c.146 0 .219-.073.292-.146.072-.073.072-.219.072-.364l-4.732-18.93c-.146-.437-.51-.728-.947-.728z" fill="#5361A3"/><path d="M152.368 77.758l-25.628.292-.364-1.53c-.073-.436.218-.873.655-.873l23.735-.146c.583 0 1.02.364 1.165.947l.437 1.31zm-21.041 13.036c-.146 0-.291-.146-.291-.218 0-.146.072-.292.218-.292l22.789-.873c.145 0 .291.073.291.218 0 .146-.073.291-.218.291l-22.789.874zm-.583-2.188c-.145 0-.291-.146-.291-.218 0-.146.073-.292.219-.292l22.788-.8c.146 0 .291.072.291.218 0 .145-.072.291-.218.291l-22.789.8zm-.582-2.11c-.145 0-.291-.145-.291-.218 0-.146.146-.291.219-.291l22.788-.655c.146 0 .291.145.291.218 0 .146-.145.291-.218.291l-22.789.656zm-.583-2.184a.313.313 0 01-.291-.29c0-.147.146-.292.291-.292l22.789-.51c.146 0 .291.146.291.291a.313.313 0 01-.291.292l-22.789.51zm-.582-2.184a.313.313 0 01-.291-.291c0-.146.146-.291.291-.291l22.789-.437c.146 0 .291.145.291.291a.313.313 0 01-.291.291l-22.789.437zm-.509-2.186a.314.314 0 01-.292-.292c0-.145.146-.29.292-.29l22.788-.292c.146 0 .291.145.291.291a.313.313 0 01-.291.291l-22.788.292zm36.986 17.548l-14.343.728c-.801.073-1.238-.582-1.529-1.383l-.583-2.039c-.291-1.092.292-1.602 1.384-1.529l12.741-.437c.801-.073 1.383.51 1.529 1.384l.801 3.276z" fill="#5361A3"/><path d="M127.905 77.25a.437.437 0 100-.875.437.437 0 000 .875zm1.747-.437c0 .218-.145.437-.436.437a.47.47 0 01-.437-.437c0-.219.145-.437.437-.437.291.073.436.218.436.437zm1.311 0c0 .218-.146.437-.437.437a.47.47 0 01-.437-.437c0-.219.146-.437.437-.437.291.073.437.218.437.437z" fill="#fff"/><path d="M150.33 94.725c-.073 0-.146-.073-.146-.146s.073-.146.146-.146l13.032-.436c.073 0 .146.072.146.145s-.073.146-.146.146l-13.032.437zm.291 1.237c-.073 0-.146-.073-.146-.146s.073-.145.146-.145l13.032-.437c.073 0 .146.073.146.145a.157.157 0 01-.146.146l-13.032.437s.073 0 0 0zm.437 1.238c-.073 0-.146-.073-.146-.146s.073-.145.146-.218l13.032-.583c.073 0 .146.073.219.146 0 .073-.073.146-.146.219l-13.105.582z" opacity=".44" fill="#fff"/><path opacity=".22" d="M162.707 75.21l5.46 23.152c.219.801-.291 1.457-1.092 1.53l-2.403.145c-4.514-1.383-8.809-5.533-12.377-11.868-3.422-6.043-10.193-10.92-16.309-14.343l24.828-.072c.801-.073 1.674.655 1.893 1.456zm-21.405 26.064l-11.358.656c-.728.072-1.456-.437-1.82-1.092 0 0 0-.073-.073-.073-.073-.073-.073-.219-.146-.291v-.073l-1.602-6.771-.873-3.568a3.05 3.05 0 011.019-.655c3.568-1.82 9.174.437 12.45 5.096 1.238 1.748 1.966 3.568 2.257 5.243.073.509.146 1.019.146 1.528z" fill="#fff"/><path d="M123.245 135.784c-.073 0-.146 0-.218-.073-.146-.073-.219-.364-.073-.51 6.625-10.193 3.64-20.386 3.567-20.459-.072-.218.073-.364.219-.437.218-.072.364.073.437.219 0 .073 3.13 10.557-3.713 21.114 0 .073-.073.146-.219.146z" fill="#333"/><path d="M172.317 118.965l-2.694 3.859c-1.019 1.383-2.985 2.038-4.659 1.601-2.039-.509-6.407-6.188-6.407-6.188l3.349-5.242 10.411 5.97z" fill="#FF9A75"/><path d="M153.606 116.418c3.422-1.602 6.698-1.093 9.829.946.582.364 1.092.728 1.601 1.092.292.219.51.364.728.583.292.218.51.364.729.655.873.728.946 2.039.145 2.839-1.092 1.165-2.402.583-3.422-.291-1.237-1.092-2.257-2.33-3.786-3.131-1.893-1.019-3.931-.655-5.824.073-.801.364-2.985.51-3.349-.728-.073-.509 2.257-1.456 3.349-2.038z" fill="#FF9A75"/><path d="M148.363 114.743c1.748-.801 3.277-1.384 4.951-1.82 1.748-.437 3.422-.801 5.242-.364 2.039.509 4.078 1.528 5.971 2.402 1.601.801 3.13 1.529 4.659 2.403 1.02.509 1.311 1.747.801 2.766-.509 1.02-1.747 1.311-2.766.801-.073 0-.073-.072-.146-.072-1.383-.874-2.84-1.821-4.296-2.622-1.893-1.092-4.077-2.693-6.334-2.839-1.82-.146-3.713.291-5.461.874-.946.364-3.421 1.31-4.222.145-.364-.582.582-1.165 1.601-1.674z" fill="#FF9A75"/><path d="M151.713 110.811a14.109 14.109 0 015.242.072c1.165.219 2.257.729 3.349 1.238.874.364 1.675.801 2.476 1.238 1.601.874 3.13 1.82 4.659 2.839.947.656 1.165 1.893.583 2.84-.656.946-1.893 1.165-2.84.582-.073 0-.073-.072-.145-.072-1.311-1.02-2.767-2.039-4.15-2.986-1.893-1.237-4.078-2.621-6.407-2.839-1.602-.146-3.277-.073-4.879.146-.946.145-4.004 1.237-4.514-.51-.218-.801 3.932-1.82 4.442-1.966.728-.291 1.456-.437 2.184-.582z" fill="#FF9A75"/><path d="M148.873 108.044c1.821.364 3.568.874 5.315 1.529 1.748.583 3.422 1.311 5.097 2.112 1.675.8 3.276 1.674 4.805 2.621.801.436 1.602.946 2.33 1.383.801.51 1.529.946 2.33 1.529.946.655 1.165 1.893.51 2.839-.656.947-1.893 1.165-2.84.51-.073 0-.073-.073-.073-.073-.655-.509-1.383-1.019-2.038-1.529-.728-.509-1.384-1.019-2.112-1.529-1.456-.946-2.912-1.893-4.441-2.766a69.131 69.131 0 00-4.587-2.403c-1.602-.728-4.368-1.675-4.368-1.675-1.165-.436-2.185-1.383-1.966-2.038.145-.655 1.456-.655 2.038-.51z" fill="#FF9A75"/><path d="M167.002 123.479c.219.219 6.262 4.514 8.082 6.626l4.66-6.043s-6.407-4.806-12.523-8.009l-.219 7.426z" fill="#FF9A75"/><path d="M228.088 130.178l-45.359-7.281 1.675-15.435s1.893.728 2.548.873c1.456.292 2.257-1.965 4.295-2.184 2.112-.218 3.277.874 4.078 1.019 2.257.51 4.15-.582 5.46-1.019 3.204-1.092 10.848-.655 19.149-.801 7.426-.145 14.852-.218 22.279-.364.364 0 5.606-1.674 5.679-1.893l-4.15 18.056c-2.476 6.408-8.956 10.121-15.654 9.029z" fill="#4CA4F6"/><path d="M185.495 114.596c-.073 1.093-.291 2.112-.437 3.058-.072.219-.072.51-.145.728-.51 1.893-1.165 3.058-1.748 3.058-.728-.072-1.164-1.893-1.237-4.441v-.655c0-.655.073-1.383.145-2.039.219-1.966.583-3.786 1.02-5.023 0-.073.072-.146.072-.219.364-1.019.874-1.529 1.311-1.529.582.073.946 1.165 1.165 2.767 0 .145 0 .364.073.51-.073 1.164-.073 2.402-.219 3.785z" fill="#333"/><path d="M247.746 93.92c-1.311-8.446-6.698-13.98-16.236-13.397-6.48.364-10.485 3.568-15.581 10.12-2.839 3.568-6.407 3.568-8.591 9.32-1.675 4.514 1.674 9.319 1.674 9.537-.073 4.296.146 4.878-2.111 12.45-.947 3.204-6.698 12.45-6.698 12.45-3.204 13.761-12.014 23.444-1.384 31.307 4.587 3.422 17.328 6.699 22.061.874 6.771-10.339 17.11-27.448 22.352-44.704 2.985-8.882 5.606-21.478 4.514-27.957z" fill="#4CA4F6"/><path d="M208.503 155.223s-18.712-10.557-24.463-13.76c-2.913-1.602-4.587-.801-7.281-2.257-3.204-1.675-3.204-2.476-4.296-4.879-.801-1.674-3.203-1.82-4.368-2.402l5.315-13.324c1.82.947 2.402 1.602 3.567 2.111 2.257 1.093 3.568-.072 5.752.073 27.812 2.476 52.931 11.067 52.931 11.067l-8.155 16.891c-4.004 6.335-11.94 9.028-19.002 6.48z" fill="#4CA4F6"/><path d="M243.741 121.223c-5.679 18.639-16.818 33.71-23.225 32.326-6.407-1.383-4.587-19.075 3.64-38.224 7.208-16.89 12.159-31.38 18.493-29.996 6.407 1.383 7.936 13.396 1.092 35.894z" fill="#4CA4F6"/><path d="M240.902 81.032c1.165 2.548 4.66 5.17-.801 7.645-5.461 2.475-17.401 6.043-19.221 3.495-1.602-2.257 2.038-6.553 7.135-9.684 4.441-2.62 11.795-3.931 12.887-1.456z" fill="#FF9A75"/><path d="M224.593 69.747s2.549 3.204-1.601 4.806c-4.078 1.601-8.592 5.824-6.48 10.047 2.111 4.223 12.231.947 14.925-3.859 2.694-4.805 1.675-11.94 1.675-11.94l-8.519.946z" fill="#702831"/><path d="M220.735 88.605c-1.821 0-3.277-1.238-3.786-3.276-.583-2.257.218-5.315 2.839-6.626 4.077-2.111 5.388-3.713 5.388-3.786.145-.145.364-.218.509-.073.146.146.219.365.073.51-.073.073-1.383 1.748-5.679 3.932-2.257 1.165-2.985 3.786-2.475 5.824.437 1.748 1.602 2.767 3.058 2.767.218 0 .364.146.364.364.073.219-.073.364-.291.364z" fill="#333"/><path d="M223.064 88.312c-.072 0-.218-.073-.291-.145-.946-1.093-1.31-2.33-1.238-3.64.292-2.986 3.058-5.389 3.204-5.461.146-.146.364-.073.51.072.145.146.072.364-.073.51 0 0-2.694 2.33-2.913 4.951-.072 1.092.292 2.184 1.093 3.13.145.146.145.365-.073.51-.073.073-.146.073-.219.073z" fill="#333"/><path d="M239.737 87.876l-12.887-3.058c1.165-1.602 1.966-3.276 2.548-4.95.292-.802.51-1.675.728-2.476.146-.51.219-1.02.292-1.53.218-1.455.364-2.839.364-4.15.073-4.368-.801-7.644-.801-7.717l13.032-4.295c.146.582 2.112 16.381-3.276 28.176z" fill="#FF9A75"/><path d="M236.461 73.97c-.073.146-2.476 4.296-7.063 5.898.292-.8.51-1.674.729-2.475.145-.51.218-1.02.291-1.53 4.004-.946 5.97-1.892 6.043-1.892z" fill="#333"/><path d="M242.94 70.112l-4.15 3.64c-4.368 3.786-11.066 3.204-14.561-1.383a9.264 9.264 0 01-1.092-1.82l-2.476-8.01c-1.237-5.096 1.165-8.736 4.369-9.828l10.848-3.568 7.062 20.969z" fill="#FF9A75"/><path d="M253.352 50.672c-3.422 2.767-10.339 3.35-11.941 1.82-.728-.727.656-8.882 4.078-11.648 3.421-2.767 8.008-2.767 10.193-.073 2.184 2.694 1.092 7.135-2.33 9.901z" fill="#86303A"/><path d="M244.906 50.89c-.146 0-.291-.146-.364-.291-.073-.219.073-.364.291-.437.073 0 7.791-1.675 11.431-7.863 2.184-3.713 2.403-8.3.728-13.615-.073-.219.073-.364.218-.437.219-.073.364.073.437.218 1.748 5.534 1.456 10.339-.801 14.198-3.786 6.407-11.576 8.081-11.867 8.154l-.073.073z" fill="#333"/><path d="M245.853 44.629h-.073c-.219-.073-.291-.292-.219-.437 1.02-3.495 4.296-6.043 9.247-7.208.073 0 .146-.073.218-.073.219-.073.364.073.437.218.073.219-.073.364-.218.437-.073 0-.146 0-.291.073-4.733 1.092-7.718 3.35-8.737 6.698-.073.219-.219.291-.364.291zm-28.905 79.069h-.073c-6.843-1.893-10.775-17.401-10.265-21.988 0-.218.218-.364.436-.291.219 0 .364.218.292.437-.583 4.878 3.64 19.512 9.683 21.187.218.072.291.218.291.436-.073.073-.218.219-.364.219z" fill="#333"/><path d="M206.173 124.353c-.219 0-.364-.219-.364-.364 0-.146.072-.291.218-.655.51-1.384 2.111-5.679 1.966-12.305 0-.218.145-.364.364-.364.218 0 .364.146.364.364.146 6.698-1.529 11.14-2.039 12.523-.073.218-.145.364-.145.437 0 .218-.146.364-.364.364zm-15.654-.655c-.728 0-2.548-.145-4.732-1.601-2.476-1.675-6.262-.728-6.262-.728-.218.072-.364-.073-.437-.292-.073-.218.073-.364.292-.436.145-.073 4.077-1.02 6.843.8 2.549 1.675 4.514 1.457 4.514 1.457a.49.49 0 01.437.291.492.492 0 01-.291.437c0 .072-.146.072-.364.072z" fill="#333"/><path d="M222.191 130.324c-.073 0-.146 0-.219-.073-.145-.073-.655-.364-1.893-.874-.801-.291-1.674-.655-2.621-1.019a90.73 90.73 0 00-8.154-2.475h-.073c-.364-.073-.728-.219-1.092-.292l-.291-.072c-8.082-2.039-15.727-4.005-20.241-2.621-.218.072-.364-.073-.437-.219-.073-.218.073-.364.219-.437 4.732-1.529 12.45.51 20.604 2.549l.291.072c.364.073.801.219 1.165.292 2.84.8 5.679 1.674 8.228 2.548.946.364 1.82.655 2.621 1.019 1.019.437 1.82.801 2.038.947.146.145.219.364.073.509 0 .073-.146.146-.218.146zm-44.559 9.61h-.145c-4.587-1.893-5.825-6.553-5.825-6.99 0-.218.146-.364.364-.364.219 0 .364.146.364.364 0 .146 1.092 4.587 5.388 6.334.218.073.291.292.218.51a.553.553 0 01-.364.146zm24.027 10.41h-.146l-1.019-.437c-4.733-1.893-10.63-4.223-14.562-7.863-2.985-2.694-4.951-2.913-5.024-2.913-.218 0-.364-.218-.364-.364 0-.218.219-.364.364-.364.073 0 2.257.219 5.461 3.058 3.859 3.495 9.683 5.825 14.343 7.718l1.092.437c.219.072.291.291.219.509-.146.146-.219.219-.364.219z" fill="#333"/><path d="M217.531 128.43c-.146 0-.219-.073-.292-.146a.384.384 0 01.146-.509c.073 0 5.096-3.204 6.261-8.883.073-.51.219-1.019.364-1.529.583-1.966 1.602-3.786 2.476-5.533 1.529-2.985 2.912-5.534 2.111-7.791-.073-.218 0-.364.219-.437.218-.072.364 0 .437.219.873 2.475-.583 5.315-2.185 8.373-.946 1.747-1.893 3.567-2.475 5.46-.146.51-.291.947-.364 1.384-1.165 5.97-6.334 9.173-6.553 9.319 0 0-.073.073-.145.073zm20.968 6.48h-.073c-.218-.073-.291-.291-.218-.437 1.966-6.99-.728-12.159-.728-12.232-.073-.145 0-.364.145-.509.146-.073.364 0 .51.145.146.219 2.839 5.534.801 12.742a.493.493 0 01-.437.291z" fill="#333"/><path d="M162.853 116.999c-.073 0-.219-.073-.292-.146 0 0-1.165-1.31-5.46-1.092-.219 0-.364-.146-.364-.364s.145-.364.364-.364c4.732-.291 6.043 1.31 6.043 1.383.145.146.073.364-.073.51-.073.073-.146.073-.218.073zm1.31-2.33c-.073 0-.146 0-.219-.073 0 0-1.383-1.092-5.096-1.602-3.786-.509-7.863.874-7.863.874-.219.073-.364 0-.437-.218-.073-.219 0-.364.218-.437.146-.073 4.223-1.456 8.227-.874 4.005.51 5.461 1.675 5.534 1.747a.451.451 0 01.073.51c-.292 0-.364.073-.437.073zm-5.606-3.057h-.146c-3.932-1.747-8.154-.218-8.154-.218-.219.073-.364 0-.437-.219-.073-.218 0-.364.218-.436.219-.073 4.587-1.675 8.737.218.218.073.291.291.219.51-.146.072-.292.145-.437.145z" fill="#C25638"/><path d="M229.034 63.56c.146.655-.146 1.237-.582 1.31-.437.073-.874-.437-.947-1.092-.145-.655.146-1.238.583-1.31.364-.073.8.436.946 1.091zm-6.043 1.237c.146.655-.145 1.237-.582 1.31-.437.073-.874-.436-.947-1.092-.145-.655.146-1.237.583-1.31.437-.073.873.436.946 1.092z" fill="#333"/><path d="M227.433 70.913a.4.4 0 01-.364-.218c-.073-.219.072-.364.218-.437.073 0 2.257-.801 1.893-3.35 0-.218.073-.364.291-.436.219 0 .364.073.437.29.437 3.132-2.402 4.15-2.402 4.15h-.073z" fill="#D9415D"/><path d="M89.026 183.618c-.073 0-.218-.073-.291-.145-.146-.146-.073-.365.072-.51.073-.073 7.5-5.825 10.34-10.63 1.455-2.403 2.038-5.897 2.62-9.247.583-3.349 1.092-6.479 2.476-8.3.145-.145.364-.218.509-.072.146.145.219.364.073.509-1.238 1.675-1.747 4.733-2.33 8.009-.582 3.422-1.237 6.917-2.694 9.465-2.912 4.878-10.193 10.63-10.484 10.848a.547.547 0 01-.291.073zm97.489-61.448c-.073 0-.146 0-.219-.073a.352.352 0 010-.509s1.384-1.602 1.748-6.189c.436-5.169-1.311-6.625-1.311-6.625a.448.448 0 01-.073-.51c.146-.146.364-.218.51-.073.073.073 2.039 1.675 1.602 7.281-.364 4.878-1.893 6.553-1.966 6.625-.073 0-.146.073-.291.073zm-14.78 11.939h-.146c-.218-.073-.291-.292-.218-.51 2.403-5.97 5.242-12.96 5.242-12.96l.655.291s-2.839 7.063-5.242 12.96c0 .073-.145.219-.291.219z" fill="#333"/><path d="M224.302 60.647c.291-.51.655-.728 1.092-1.019.437-.218.874-.364 1.311-.364.437-.073.946 0 1.383.073.437.073.874.218 1.238.51.146.072.218.29.073.436-.073.073-.073.146-.146.146a3.7 3.7 0 01-1.238.218c-.364.073-.728.146-1.092.146-.364.073-.728.073-1.092.146-.364.072-.728.072-1.165.072h-.073a.313.313 0 01-.291-.29c-.073 0-.073 0 0-.074zm-2.184 1.311c-.073.145-.291.218-.364.291l-.364.291c-.146.073-.219.219-.364.364-.146.146-.219.364-.437.583-.437-.364-.51-1.092-.218-1.602.145-.291.364-.51.582-.655.291-.146.51-.219.801-.219.291 0 .51.219.51.51 0 .145-.073.218-.146.291v.146z" fill="#702831"/><path d="M258.522 69.093l-6.553 42.083c-2.476 14.197-14.78 24.463-29.196 24.463h-21.332c-5.752 0-10.63 4.441-11.067 10.193l-1.893 24.172-68.075-.073-2.111-27.812c-.292-3.786-3.495-6.771-7.281-6.771h-.437c-5.606 0-9.902 5.096-9.101 10.775l9.465 70.114h13.033l60.939.073 65.381.072 22.643-128.068c1.675-9.465-5.096-18.201-14.415-19.22z" fill="#FD653C"/><path d="M238.208 54.168c5.897 1.674 11.868 3.713 16.819 7.28 1.456 1.02 2.839 2.184 4.15 3.64 3.64 3.86 5.679 8.883 6.407 14.053l.072.727.146 1.53.073.946c.437 4.15-2.548 7.863-6.626 8.373-4.077.51-7.863-2.548-8.372-6.626a7.526 7.526 0 01.655-4.004c.874-1.893 1.092-3.786.655-5.533-.218-.874-.582-1.82-1.165-2.694-.582-.874-1.31-1.675-2.184-2.476-4.077-3.64-1.966-4.66-6.917-6.188 1.311-.874-2.548-2.039-1.165-2.694-1.383.728-1.165-1.748-2.694-1.675.656-1.383-1.164 2.112.073 1.384-1.165-.728-8.154-1.093-6.844-3.64 1.165-2.33 3.641-3.131 6.043-2.549.292 0 .583.073.874.146z" fill="#FCD8AE"/><path d="M217.531 53.148c2.985 3.35 8.664 8.3 19.803 9.757 0 0 4.005-.801 3.495 2.33-.582 3.13-9.319 15.435-7.135 26.647 2.184 11.139 16.09 2.475 14.052 13.469-1.602 8.519-5.17 19.44-5.17 19.44 18.858 5.752 28.177-23.444 23.153-36.331-1.966-5.096-4.295-10.047-8.227-13.76-4.733-4.587-6.626-9.466-8.373-15.654-1.383-4.951-3.713-10.12-8.3-12.814-4.441-2.548-11.358-1.675-15.945-.583-5.169 1.092-10.994 3.422-7.353 7.5z" fill="#86303A"/><path d="M191.029 63.123l-.437.655c-.291.437-.728.947-1.019 1.456-.364.51-.655 1.093-1.019 1.675-.656 1.165-1.238 2.33-1.675 3.567-.291.729-.583 1.457-.801 2.185-.146.51-.364 1.092-.51 1.602a34.18 34.18 0 00-.873 3.931v.146c-.292 1.602-1.748 2.694-3.349 2.475-1.457-.218-2.476-1.456-2.476-2.912 0-1.602.073-3.204.219-4.805.072-.437.145-.947.218-1.384.146-1.092.364-2.257.655-3.349.364-1.529.801-3.058 1.384-4.587.291-.728.582-1.529.873-2.257a21.97 21.97 0 011.092-2.33l.073-.145c1.165-2.112 3.786-2.913 5.898-1.748 2.111 1.02 2.912 3.714 1.747 5.825z" fill="#FCD8AE"/><path d="M248.765 58.537c-.146 0-.291-.073-.364-.291-3.349-11.067-9.246-12.378-9.319-12.378-.219-.073-.291-.218-.291-.437.072-.218.218-.29.436-.29.292.072 6.407 1.383 9.902 12.886.073.218-.073.364-.218.437-.073.073-.146.073-.146.073z" fill="#333"/><path d="M241.719 64.365c.812-2.056.379-4.155-.967-4.687-1.347-.531-3.097.705-3.909 2.762-.812 2.057-.379 4.156.967 4.687 1.346.532 3.096-.704 3.909-2.761z" fill="#FF9A75"/><path d="M184.986 216.747s-.073 0 0 0c-.218 0-.364-.219-.364-.364l5.679-71.279c.437-5.46 5.024-9.683 10.484-9.683.219 0 .364.146.364.364s-.145.364-.364.364c-5.096 0-9.392 3.932-9.756 9.028l-5.679 71.278c0 .146-.218.292-.364.292z" fill="#333"/><path d="M185.496 114.598c-.073 1.092-.292 2.111-.437 3.057h-.146a12.112 12.112 0 01-3.058-.655c-.728-.291-1.383-.655-1.82-1.092-1.456-1.674-1.31-4.805-4.441-7.645-2.476-2.257-5.097-6.552-3.349-6.043 0 0 3.13 1.893 7.426 4.514a90.67 90.67 0 013.422 2.33c.874.655 1.675 1.238 2.475 1.82.073 1.093.073 2.33-.072 3.714z" fill="#FF9A75"/><path d="M224.958 69.24c-.292 0-.583-.146-.656-.438-.218-.51-.582-4.441-.728-5.606 0-.218.146-.364.364-.364.219 0 .364.146.364.291.219 2.403.51 5.097.656 5.388.218 0 1.237-.655 1.383-1.165.073-.218.291-.291.437-.218.218.073.291.29.218.436-.145.801-1.31 1.675-2.038 1.675z" fill="#C25638"/><path d="M253.862 99.162c-.073 0-.073 0 0 0-.219 0-.364-.219-.364-.437.218-1.82-.073-3.13-.874-4.077-1.383-1.675-4.223-2.039-7.208-2.33-2.621-.291-5.315-.583-7.28-1.82-8.009-5.17 1.31-22.935 1.674-23.663.073-.145.291-.218.51-.145.145.073.218.29.145.51-.072.145-9.392 17.91-1.965 22.715 1.82 1.165 4.441 1.456 6.989 1.748 3.131.364 6.116.655 7.645 2.548.873 1.092 1.238 2.62 1.019 4.66a.313.313 0 01-.291.29zm-8.009 20.532c-.874 0-1.383-.073-1.383-.073-.219 0-.364-.218-.291-.436 0-.219.218-.364.436-.292.437.073 10.994 1.456 15.508-9.537.073-.219.292-.292.51-.219.218.073.291.291.218.51-3.858 9.101-11.794 10.047-14.998 10.047zm4.66 5.243c-4.223 0-6.917-3.277-6.99-3.349-.145-.146-.073-.364.073-.51.146-.146.364-.073.51.073.145.218 4.368 5.242 10.266 2.038.145-.072.364 0 .509.146.073.146 0 .364-.145.51-1.529.8-2.986 1.092-4.223 1.092zm-8.228-63.052c-.291-.073-.364-.218-.364-.437.291-1.602.073-2.621-.582-3.349-1.384-1.383-4.806-1.675-11.14-.874-11.576 1.456-14.124-6.625-14.124-6.698-.073-.218.072-.364.218-.437.218-.073.364.073.437.219.073.29 2.402 7.572 13.324 6.188 6.698-.873 10.193-.51 11.722 1.092.873.874 1.092 2.184.8 4.005.073.145-.145.29-.291.29zM122.444 216.747c-.218 0-.364-.146-.364-.364l-3.931-73.463c-.146-2.329-1.383-4.368-3.204-5.679-2.111-1.456-4.878-1.747-7.79-.873-.218.073-.364-.073-.437-.219-.073-.218.073-.364.219-.437 3.13-.946 6.115-.582 8.445 1.02 2.039 1.383 3.349 3.64 3.568 6.188l3.931 73.463c0 .218-.218.364-.437.364.073 0 .073 0 0 0zm65.017-107.32c-.145 0-.291-.073-.291-.218-.073-.146 0-.364.146-.51.364-.146.801-.51 1.238-1.238.436-.8 1.237-1.31 2.257-1.529 1.31-.291 2.839-.072 3.858.656 1.311.873 3.495 1.601 4.296 1.31.218-.073.364.073.437.219.073.218-.073.364-.219.436-1.237.437-3.713-.582-4.951-1.383-.873-.582-2.184-.801-3.276-.582-.582.145-1.383.437-1.82 1.237-.51.874-1.092 1.311-1.529 1.529 0 .073-.073.073-.146.073z" fill="#333"/><path d="M196.781 108.264h-.291c-.219 0-.364-.219-.291-.437 0-.219.218-.364.436-.291.729.072 1.311-.219 2.112-.729 1.456-.8 3.64-2.111 8.518-1.747.219 0 .364.218.364.364 0 .219-.218.364-.364.364-4.659-.364-6.625.801-8.154 1.602-.874.51-1.529.874-2.33.874z" fill="#333"/><path d="M208.43 66.035c-1.019 1.747-4.296 1.966-5.897 5.242-.292.655-.583 1.31-.801 1.966-.219.582-.437 1.165-.583 1.747-.437 1.238-.655 2.549-.873 3.859v.146c-.292 1.529-1.821 2.62-3.349 2.33-1.384-.219-2.33-1.457-2.33-2.767 0-1.602 0-3.204.218-4.806.073-.364.073-.728.146-1.092.145-1.237.364-2.475.655-3.64.364-1.529.801-3.13 1.311-4.587.291-.728.509-1.529.873-2.257l.437-1.092.218-.583.073-.218c.073-.073 0-.073 0 0 1.02-2.184 3.422-2.694 5.825-2.257 5.242.874 5.169 6.189 4.077 8.009z" fill="#FCD8AE"/><path d="M195.179 71.713s-.073 0 0 0c-.218 0-.364-.218-.364-.437.655-6.77 4.368-10.265 6.844-12.595 1.238-1.165 2.184-2.112 2.111-2.84 0-.218.146-.364.291-.437a.49.49 0 01.437.291c.146 1.165-.873 2.112-2.33 3.495-2.329 2.257-5.97 5.606-6.625 12.16-.073.218-.218.363-.364.363z" fill="#AD5F1F"/><path d="M195.398 58.972c0 1.238-1.966 3.058-3.641 3.058-1.747 0-4.004-1.31-4.004-2.621 0-1.238 1.456-2.476 3.64-2.694 2.257-.146 4.005 1.02 4.005 2.257z" fill="#D48648"/><path d="M190.083 64.871c-2.549-.218-7.063-1.237-8.81-5.897-1.383-3.567.728-6.698 1.456-7.936.146-.145.219-.291.219-.364.072-.218.218-.291.436-.291.219.073.292.218.292.437 0 .145-.146.29-.292.582-.728 1.092-2.621 4.077-1.383 7.28 1.602 4.296 5.825 5.243 8.227 5.389.219 0 .364.218.364.364-.145.29-.291.436-.509.436z" fill="#AD5F1F"/><path d="M201.732 73.242c-.219.583-.437 1.165-.583 1.748-.437 1.237-.655 2.548-.873 3.858v.146c-.292 1.529-1.821 2.621-3.349 2.33-1.384-.219-2.33-1.456-2.33-2.767 0-1.602 0-3.203.218-4.805.073-.364.073-.728.146-1.092.728-.073 1.456-.146 2.184-.146 1.602 0 3.203.219 4.587.728z" fill="#D48648"/><path d="M260.706 90.79c-4.514 1.893-9.683-.146-12.96-3.495-.509-.51-.946-1.092-1.383-1.674a16.003 16.003 0 01-1.529-2.33c-.146-.291-.291-.656-.437-1.02-.146-.364-.218-.728-.364-1.092v-.072c0-.146-.073-.219-.073-.364v.072c-.655-2.257-.291-4.514.146-6.115.437-1.457.946-2.403.946-2.403l.364 1.238c.51-1.31 1.311-2.403 1.311-2.403s1.238.728 2.257 1.747c.218-.437.437-.728.51-.728.873.728 2.329 1.092 4.295 3.713.51.583.947 1.238 1.384 1.966.218.364.509 1.238.946 1.893.291.51.728.874 1.165.656 1.019-.437 0-2.986-.218-3.64-.656-1.967-3.422-6.335-4.223-8.228l.728-2.403c-.728-1.602 1.82 1.238 3.422.51 1.31-.582 3.13-.582 4.077.437 1.82 2.111 3.131 4.587 4.223 7.644.509 1.457 1.019 2.986 1.238 4.733.436 4.587-1.457 9.538-5.825 11.358z" fill="#FCD8AE"/><path d="M243.96 80.962v-.146c-.072 0-.072.073 0 .145z" fill="#FCD8AE"/><path d="M252.915 74.626c-1.165-1.238-2.329-1.82-3.567-2.62-.073 0-.291.363-.51.8-1.019-1.092-2.111-1.82-2.111-1.82s-.874.946-1.384 2.257l-.364-.947s-.801.656-1.529 2.84c-.728 2.403-.291 4.805.51 6.99.364 1.091 1.165 2.33 1.82 3.276.801 1.019 2.767 1.747 4.005 1.092 1.383-.728 2.329-3.058 2.694-4.951 1.892.291 3.276-.364 3.567-1.82 0-.073-1.019-2.84-3.131-5.097z" fill="#D48648"/><path d="M189.428 58.9c-.146 0-.365-.145-.365-.29 0-.219.073-.364.292-.437.728-.073 1.165-.364 1.456-.728.145-.219.218-.437.218-.583v-.29c0-.22.146-.365.364-.365.219 0 .364.146.364.291v.364c0 .291.073.656.364.947.219.218.583.291 1.093.218.218 0 .364.073.436.291 0 .219-.072.364-.291.437-.728.146-1.31 0-1.747-.364-.146-.145-.219-.218-.291-.364-.292.364-.947.728-1.893.874.072 0 .072 0 0 0z" fill="#AD5F1F"/><path d="M186.151 72.588c-.145.51-.364 1.092-.509 1.602a34.181 34.181 0 00-.874 3.931v.146c-.291 1.602-1.747 2.694-3.349 2.476-1.456-.219-2.476-1.457-2.476-2.913 0-1.602.073-3.203.219-4.805.073-.437.145-.947.218-1.383.364 0 .801-.073 1.165-.073 2.039 0 3.932.364 5.606 1.02z" fill="#D48648"/><path d="M192.413 56.498c0 .364-.437.728-.947.728s-.946-.292-1.019-.656c0-.364.437-.728.946-.728.583 0 1.02.291 1.02.656z" fill="#333"/><path d="M180.618 80.815a.4.4 0 01-.364-.218c-.292-.728-.51-1.675-.437-2.621 0-.219.145-.364.364-.364.218 0 .364.145.364.364 0 .946.146 1.674.437 2.33.073.218 0 .364-.219.51h-.145zm3.64-20.313a.4.4 0 01-.364-.219c-.073-.218 0-.364.145-.51l2.767-1.237c.146-.073.364 0 .51.145.073.219 0 .364-.146.51l-2.767 1.238c-.072.073-.072.073-.145.073zm2.694-2.549l-3.422-.29c-.218 0-.364-.22-.364-.365 0-.218.218-.364.364-.364l3.422.291c.218 0 .364.219.364.364 0 .219-.146.364-.364.364zm9.537-.728c-.145 0-.291-.146-.364-.291-.072-.219.073-.364.292-.437l3.276-.655c.218-.073.364.072.437.29.073.22-.073.365-.291.438l-3.35.655s.073 0 0 0zm2.549 2.111h-.146l-2.475-.874c-.219-.073-.292-.291-.219-.437.073-.218.291-.291.437-.218l2.475.873c.219.073.292.291.219.437 0 .073-.146.219-.291.219zm-16.236 21.48a.4.4 0 01-.364-.219c-.364-.8-.51-1.747-.437-2.912 0-.219.146-.364.364-.364.219 0 .364.145.364.364 0 1.02.073 1.893.437 2.548.073.218 0 .364-.218.51-.073.073-.146.073-.146.073zm13.397.654a.4.4 0 01-.364-.219c-.292-.8-.364-1.674-.292-2.694 0-.218.219-.364.364-.364.219 0 .364.219.364.364-.072.874 0 1.748.219 2.403.073.219 0 .364-.219.437 0 0 0 .073-.072.073zm2.111.146a.4.4 0 01-.364-.218c-.291-.801-.364-1.82-.291-2.912 0-.219.218-.365.364-.292.218 0 .364.219.291.364-.073 1.02 0 1.893.218 2.621.073.219 0 .364-.218.437.146 0 .073 0 0 0z" fill="#AD5F1F"/><path d="M248.984 76.592a.4.4 0 01-.364-.218c-1.093-2.985.436-4.514.509-4.587a.352.352 0 01.51 0 .353.353 0 010 .51c-.073.072-1.238 1.31-.291 3.786.072.218 0 .364-.219.436-.073.073-.073.073-.145.073zm-3.058-1.165c-.219 0-.365-.218-.365-.364.073-1.165-.8-2.62-.873-2.62-.146-.147-.073-.365.073-.51.145-.146.364-.073.509.072.073.073 1.02 1.602.947 3.058.073.218-.073.364-.291.364zm-21.406 40.918c-.145.509-.437 2.111-.582 2.548-2.112 6.553-6.407 9.101-6.407 9.101-2.112-.728-1.966-.947-5.242-1.82.291.073-2.549-8.956-3.35-13.251 0 0 3.495 9.174 7.936 10.12 2.913.655 6.189-2.111 7.645-6.698z" fill="#333"/><path d="M195.179 48.197c-.145 0-.364-.146-.364-.291-.145-1.02.728-3.058.801-3.276.073-.219.291-.292.51-.219.218.073.291.291.218.51-.218.582-.874 2.184-.728 2.84a.656.656 0 01-.437.436zm-11.285 3.493c-.146 0-.291-.072-.364-.29-.437-1.602-.073-3.568.073-3.786.072-.146.364-.219.509-.146a.35.35 0 01.146.437c-.073.218-.364 1.893 0 3.276.073.219-.073.364-.291.437 0 .073 0 .073-.073.073z" fill="#AD5F1F"/><path d="M69.66 208.011c-.073 0-.146 0-.146-.073-1.238-.655-1.82-1.456-1.675-2.402.364-2.257 5.024-3.932 5.315-3.932.219 0 .364.073.437.291 0 .219-.073.364-.291.437-.583.073-4.514 1.747-4.733 3.349-.072.583.364 1.092 1.238 1.602.146.073.218.291.146.51-.073.145-.146.218-.291.218z" fill="#C25638"/><path d="M289.829 138.115c0 21.478-2.33 38.952-5.242 38.952-2.913 0-2.184-17.62-5.242-38.952-3.932-27.012-3.204-40.117 1.383-41.5 6.189-1.82 9.101 20.022 9.101 41.5z" fill="url(#paint4_linear_1104_37007)"/><path d="M295.144 117.511c-.947 21.478-5.97 38.661-8.81 38.297-2.912-.364.219-17.765.073-39.243-.218-27.23 5.388-50.31 10.12-51.111 6.407-1.02-.51 31.671-1.383 52.057z" fill="#FD653C"/><path d="M286.189 161.194c-.656-40.553 10.775-55.916 10.921-56.061l.582.437c-.145.145-11.43 15.289-10.775 55.552l-.728.072z" fill="#333"/><path d="M314.219 147.071c-9.683 11.067-25.337 24.537-27.739 21.916-2.33-2.476 2.912-13.106 10.63-26.066 8.081-13.687 14.998-18.784 19.148-18.638 6.698.291 7.645 11.722-2.039 22.788z" fill="url(#paint5_linear_1104_37007)"/><path d="M285.242 155.59c-.145 0-.291-.146-.364-.292-.218-.873.364-41.427 2.33-61.813 1.966-20.968 6.698-27.74 9.174-28.395.218-.073.364.073.437.291.072.219-.073.365-.292.437-2.111.583-6.698 7.135-8.664 27.74-1.893 20.095-2.475 60.357-2.329 61.595.072.218-.073.364-.292.437.073 0 0 0 0 0z" fill="#333"/><path d="M286.334 180.199c-1.31-38.952-16.746-63.342-16.891-63.561l.582-.364c.146.219 15.727 24.755 17.037 63.925h-.728z" fill="#333"/><path d="M292.159 129.816c-6.335 17.037-9.174 43.466-4.878 44.121 4.15.655 7.79-11.867 17.91-29.268 9.902-16.964 20.823-38.734 17.911-42.957-5.534-8.008-22.134 4.442-30.943 28.104z" fill="url(#paint6_linear_1104_37007)"/><path d="M316.04 146.488c-.073 0-.146 0-.219-.073-.145-.145-.218-.364-.073-.509 2.257-2.913 6.699-12.305 5.315-17.547-.436-1.456-1.237-2.475-2.548-3.058-6.698-2.694-12.96 6.116-13.032 6.189-.146.145-.364.218-.51.073-.146-.146-.218-.364-.073-.51.291-.364 6.698-9.319 13.906-6.407 1.529.655 2.549 1.82 2.985 3.495 1.529 5.679-3.276 15.435-5.387 18.202-.146.072-.292.145-.364.145z" fill="#333"/><path d="M281.456 140.519c4.514 12.959 8.227 31.889 5.097 32.69-3.058.801-9.32-8.373-16.309-20.604-7.354-12.887-8.373-20.823-6.335-24.172 3.204-5.388 13.033-.947 17.547 12.086z" fill="#4CA4F6"/><path d="M273.083 150.566c7.354 5.169 12.523 17.983 10.994 21.332-1.456 3.276-7.281-4.15-15.435-7.863-8.227-3.713-12.814-9.101-12.159-12.669.728-4.295 5.097-8.809 16.6-.8z" fill="url(#paint7_linear_1104_37007)"/><path d="M281.092 172.552c-.145 0-.364-.145-.364-.291-.728-5.023-3.786-12.013-14.489-16.673-6.115-2.621-8.008-4.878-8.518-6.261-.364-.874-.146-1.383-.073-1.456.073-.219.291-.291.51-.146.145.073.291.291.218.51 0 .073-.873 2.766 8.227 6.698 10.994 4.805 14.198 12.013 14.926 17.255-.073.146-.218.364-.437.364z" fill="#333"/><path d="M292.377 153.55c-5.461 9.465-8.227 18.057-6.116 19.294 2.112 1.165 6.407-5.242 11.868-14.707 4.805-8.373 14.197-14.124 14.124-18.784-.072-6.189-14.416 4.732-19.876 14.197z" fill="#4CA4F6"/><path d="M286.771 172.99v-1.092c0-.364.073-.728.146-1.02.728-4.878 3.858-9.465 7.28-12.887 5.461-5.46 11.941-9.683 18.639-13.469 3.276-1.893 6.625-3.64 10.047-5.388 2.767-1.456 5.679-3.64 8.883-4.077 3.131-.437 3.058 2.985 1.893 4.805-10.266 16.528-33.2 16.455-42.665 33.201-.291.509-1.602 1.165-2.039 1.456-1.165.728-2.184-.437-2.184-1.529z" fill="url(#paint8_linear_1104_37007)"/><path d="M286.771 169.278c-.073 0-.146 0-.146-.073-.145-.073-.218-.291-.145-.51 0 0 .073-.145.073-.218 2.402-5.315 10.557-18.857 34.583-28.905.218-.073.364 0 .51.219.072.218 0 .364-.219.509-23.808 9.975-31.817 23.299-34.146 28.541-.073.145-.073.218-.146.291-.146.073-.218.146-.364.146z" fill="#333"/><path d="M303.007 221.698c-.218-4.004-1.383-8.227-2.111-12.159-1.165-6.625-2.33-13.251-3.568-19.949-1.019-5.752-2.038-11.431-3.058-17.183 0-.218-.509-3.64-.655-3.64h-17.182s-8.956 50.383-8.956 50.456c-.582 3.13-.509 5.897.947 8.809 1.383 2.694 3.64 4.878 6.261 6.407h20.75c.874 0 2.549-1.747 3.204-2.33 1.019-.946 1.893-1.965 2.621-3.13 1.238-2.112 1.82-4.733 1.747-7.281z" fill="#8EC8FE"/><path d="M285.024 224.319c-6.844 0-13.397-.51-17.984-1.384-.218-.072-.291-.218-.291-.436.073-.219.218-.292.437-.292 4.514.874 11.067 1.384 17.838 1.384 6.771 0 13.323-.51 17.837-1.384.219-.072.364.073.437.292.073.218-.073.364-.291.436-4.514.874-11.067 1.384-17.983 1.384zm0-4.151c-6.699 0-12.887-.436-17.547-1.31-.218 0-.364-.218-.291-.437 0-.218.218-.291.437-.291 4.587.801 10.775 1.31 17.401 1.31 6.625 0 12.959-.509 17.473-1.31.219 0 .364.073.437.291 0 .219-.072.364-.291.437-4.587.874-10.848 1.31-17.619 1.31z" fill="#5361A3"/><path d="M301.802 105.034c1.734-3.268 1.641-6.712-.206-7.692-1.847-.98-4.75.876-6.483 4.144-1.734 3.268-1.641 6.711.206 7.691 1.847.98 4.749-.875 6.483-4.143zm-34.398 12.55c1.165 2.329 3.131 3.64 4.441 2.985 1.311-.656 1.384-3.058.292-5.315-1.165-2.33-3.131-3.641-4.442-2.985-1.31.655-1.383 2.985-.291 5.315z" fill="#333"/><defs><linearGradient id="paint0_linear_1104_37007" x1="99.072" y1="188.615" x2="99.072" y2="92.096" gradientUnits="userSpaceOnUse"><stop stop-color="#3494EE"/><stop offset="1" stop-color="#78BEFF"/></linearGradient><linearGradient id="paint1_linear_1104_37007" x1="162.925" y1="174.55" x2="162.925" y2="100.545" gradientUnits="userSpaceOnUse"><stop stop-color="#3494EE"/><stop offset="1" stop-color="#78BEFF"/></linearGradient><linearGradient id="paint2_linear_1104_37007" x1="153.606" y1="113.585" x2="153.606" y2="101.638" gradientUnits="userSpaceOnUse"><stop stop-color="#3494EE"/><stop offset="1" stop-color="#78BEFF"/></linearGradient><linearGradient id="paint3_linear_1104_37007" x1="141.515" y1="98.776" x2="141.515" y2="75.576" gradientUnits="userSpaceOnUse"><stop stop-color="#3494EE"/><stop offset="1" stop-color="#78BEFF"/></linearGradient><linearGradient id="paint4_linear_1104_37007" x1="283.311" y1="181.791" x2="283.311" y2="96.508" gradientUnits="userSpaceOnUse"><stop stop-color="#3494EE"/><stop offset="1" stop-color="#78BEFF"/></linearGradient><linearGradient id="paint5_linear_1104_37007" x1="303.655" y1="169.317" x2="303.655" y2="124.28" gradientUnits="userSpaceOnUse"><stop stop-color="#FE5F34"/><stop offset="1" stop-color="#FF9879"/></linearGradient><linearGradient id="paint6_linear_1104_37007" x1="304.404" y1="173.962" x2="304.404" y2="99.287" gradientUnits="userSpaceOnUse"><stop stop-color="#FE5F34"/><stop offset="1" stop-color="#FF9879"/></linearGradient><linearGradient id="paint7_linear_1104_37007" x1="270.384" y1="172.712" x2="270.384" y2="146.15" gradientUnits="userSpaceOnUse"><stop stop-color="#FE5F34"/><stop offset="1" stop-color="#FF9879"/></linearGradient><linearGradient id="paint8_linear_1104_37007" x1="310.585" y1="177.075" x2="310.585" y2="135.019" gradientUnits="userSpaceOnUse"><stop stop-color="#3494EE"/><stop offset="1" stop-color="#78BEFF"/></linearGradient></defs></svg>